<?xml version="1.0" encoding="UTF-8" standalone="no"?>
<svg
   width="36.689667"
   height="36.001694"
   viewBox="0 0 9.7074739 9.5254469"
   version="1.1"
   id="svg47"
   sodipodi:docname="fedmenu.svg"
   inkscape:version="1.1.2 (0a00cf5339, 2022-02-04)"
   xmlns:inkscape="http://www.inkscape.org/namespaces/inkscape"
   xmlns:sodipodi="http://sodipodi.sourceforge.net/DTD/sodipodi-0.dtd"
   xmlns="http://www.w3.org/2000/svg"
   xmlns:svg="http://www.w3.org/2000/svg">
  <defs
     id="defs51">
    <rect
       x="-257.15677"
       y="29.041853"
       width="121.34168"
       height="107.84155"
       id="rect28970" />
    <rect
       x="108.42954"
       y="165.14723"
       width="559.38306"
       height="52.573055"
       id="rect6037" />
    <rect
       x="69.046616"
       y="172.59865"
       width="310.78745"
       height="164.75797"
       id="rect2269" />
    <rect
       x="5.4376836"
       y="139.77849"
       width="1395.5024"
       height="211.72867"
       id="rect18708" />
  </defs>
  <sodipodi:namedview
     id="namedview49"
     pagecolor="#000000"
     bordercolor="#666666"
     borderopacity="1.0"
     inkscape:pageshadow="2"
     inkscape:pageopacity="0"
     inkscape:pagecheckerboard="0"
     showgrid="false"
     fit-margin-top="0"
     fit-margin-left="0"
     fit-margin-right="0"
     fit-margin-bottom="0"
     inkscape:zoom="2.7010366"
     inkscape:cx="88.669662"
     inkscape:cy="89.780347"
     inkscape:window-width="1366"
     inkscape:window-height="699"
     inkscape:window-x="0"
     inkscape:window-y="32"
     inkscape:window-maximized="1"
     inkscape:current-layer="svg47" />
  <path
     fill="#51a2da"
     d="M 4.8563181,0 C 2.1758793,0 0.00563797,2.1304115 8.9605589e-4,4.76059 H 0 V 8.4457803 H 8.9605589e-4 C 0.00215053,9.0422768 0.49544665,9.5254473 1.103798,9.5254473 H 4.8567925 C 7.5377063,9.5237491 9.7074734,7.3936127 9.7074734,4.7648577 9.7074772,2.134679 7.5348616,0.00426737 4.8520509,0.00426737 Z"
     id="path39"
     sodipodi:nodetypes="cccccscccc"
     style="stroke-width:0.249997" />
  <path
     fill="#ffffff"
     d="m 5.8430153,1.9588109 c -0.757237,0 -1.4261473,0.5591392 -1.5187509,1.2926685 -0.00622,0.061404 -0.00805,0.1055613 -0.0084,0.1612284 l 8.999e-4,2.9991321 c 0,0.5753013 -0.4390465,0.9668537 -0.9876529,0.9668537 -0.5493639,0 -0.9919161,-0.4305317 -0.9919161,-0.9677579 0.00901,-0.5897639 0.4903234,-0.9638681 1.0517308,-0.9801601 h 0.00297 l 0.5699838,-0.00516 V 4.6338084 l -0.5699838,0.00413 c -1.0218195,-0.00901 -1.8328985,0.7757462 -1.8625234,1.773383 0,0.9701352 0.8127465,1.7611099 1.7994787,1.7611099 0.9307807,0 1.7053291,-0.7131922 1.7899193,-1.6055659 0.012192,-0.3037478 0.00633,-0.7045989 0.00633,-0.7045989 0.0017,-0.1650553 -0.00262,-0.1058186 -9e-4,-0.4335596 l 0.7069244,-0.00504 c 0.5470381,0.0038 0.5408537,-0.8044698 -0.00633,-0.7933522 l -0.7007234,0.00516 c 0,-0.4068313 0.00652,-0.811196 0,-1.2186437 4.75e-4,-0.3523975 0.3407174,-0.6637749 0.7182927,-0.6637749 0.3776706,0 0.7772034,0.1848713 0.7772034,0.6637749 0,0.068422 -0.00142,0.1082336 -0.0053,0.1335822 -0.042153,0.2220977 0.1126133,0.4344589 0.3405429,0.4665027 0.2279302,0.031674 0.4372003,-0.1298373 0.4597855,-0.3544954 0.013057,-0.088811 0.012532,-0.1671278 0.012532,-0.24546 0,-0.8444828 -0.7695525,-1.4566109 -1.5846372,-1.4566109 z"
     id="path43"
     style="stroke-width:0.249997" />
</svg>
